<svg width="18" height="18" viewBox="0 0 18 18" fill="none" xmlns="http://www.w3.org/2000/svg">
<path d="M17.0796 16.7125H1.54345C1.22682 16.7125 0.973511 16.9944 0.973511 17.3468C0.973511 17.6992 1.22682 17.9812 1.54345 17.9812H17.0796C17.3963 17.9812 17.6496 17.6992 17.6496 17.3468C17.6496 16.9944 17.3963 16.7125 17.0796 16.7125Z" fill="white"/>
<path d="M9.31145 0.981155C8.82649 0.981155 8.43341 1.31608 8.43341 1.7293L8.45 12.0757L5.44831 9.51812C5.10628 9.22669 4.54985 9.22669 4.20782 9.51812C3.86579 9.80955 3.86579 10.2837 4.20782 10.5751L8.70525 14.4072C8.87371 14.5507 9.09832 14.6247 9.32294 14.6247C9.54756 14.6247 9.77217 14.5507 9.94064 14.4072L14.4381 10.5751C14.7801 10.2837 14.7801 9.80955 14.4381 9.51812C14.096 9.22669 13.5396 9.22669 13.1976 9.51812L10.1959 12.0757L10.1793 1.72495C10.1844 1.31173 9.79642 0.981155 9.31145 0.981155Z" fill="white"/>
</svg>
