<svg width="1576" height="501" viewBox="0 0 1576 501" fill="none" xmlns="http://www.w3.org/2000/svg">
<path fill-rule="evenodd" clip-rule="evenodd" d="M243.277 2.71371C233.2 7.09723 209.864 23.7388 180.556 47.4416C149.546 72.5209 137.688 78.511 118.873 78.6023C105.726 78.6697 106.773 76.6228 124.354 67.8914C165.255 47.5844 189.543 16.495 164.506 16.495C152.481 16.495 139.369 24.7781 117.656 46.0888C96.7316 66.622 87.3442 71.5926 87.3442 62.1393C87.3442 57.5375 82.7397 55.5382 79.099 58.561C71.6549 64.7376 77.6316 76.1031 89.3033 77.9676C93.3883 78.6221 96.4857 80.1415 96.4857 81.4942C96.4857 88.0358 106.071 91.8917 119.817 90.8762L133.095 89.8963L118.667 105.752C23.3298 210.529 -22.1993 316.435 12.1657 353.491C25.6102 367.99 49.8739 370.906 76.3783 361.207C85.6705 357.807 95.9741 355.717 108.364 354.721C133.389 352.71 159.965 341.297 188.321 320.379C197.447 313.651 201.032 312.044 206.14 312.389C213.755 312.909 224.007 306.863 239.295 292.848C252.121 281.093 252.732 281.101 247.196 292.994C236.174 316.677 247.156 330.26 269.195 320.2C274.902 317.594 308.025 294.149 324.722 280.899C326.11 279.796 322.798 285.461 317.361 293.486C300.308 318.657 298.59 333.069 312.507 334.231C322.533 335.068 330.25 330.189 360.558 303.832C391.675 276.777 390.469 277.317 385.052 292.836C376.065 318.593 390.628 329.185 417.529 316.455C426.365 312.274 430.411 311.342 436.28 312.131C449.784 313.94 474.928 297.231 530.896 249.25C545.974 236.322 546.799 236.219 539.756 248.112C495.258 323.278 546.438 357.2 622.688 303.075C656.283 279.225 644.972 279.173 584.662 302.892C537.36 321.497 531.622 284.132 573.672 231.296C599.36 199.02 603.988 189.865 597.567 184.049C591.781 178.812 589.155 180.344 552.121 210.592C532.212 226.853 512.482 242.951 508.274 246.362L500.628 252.567L500.794 246.66C501.02 238.797 494.54 233.291 486.874 234.822C472.688 237.663 434.559 274.715 427.912 292.126C424.858 300.115 419.853 304.054 408.657 307.264C400.075 309.727 402.502 298.044 416.502 269.51C434.444 232.926 420.17 238.337 351.437 294.161C343.398 300.69 335.668 306.899 334.264 307.958C331.658 309.926 337.948 297.977 351.528 275.171C360.764 259.66 361.451 257.775 359.353 253.693C355.652 246.501 344.405 252.051 292.633 286.596C280.748 294.526 269.905 301.678 268.544 302.491C261.481 306.689 276.397 273.969 292.487 249.968C300.899 237.421 301.355 229.808 293.748 228.924C289.98 228.483 284.646 232.418 266.486 249.032C254.069 260.394 238.946 274.211 232.883 279.741C221.647 289.984 221.001 289.5 230.174 277.694C249.682 252.587 250.717 220.216 231.689 230.403C229.079 231.804 226.759 231.355 222.214 228.582C194.357 211.596 92.9242 294.093 87.4473 338.19C85.1153 356.978 36.2152 361.421 24.6227 343.895C3.41282 311.838 21.6958 254.661 76.537 181.542C81.9782 174.286 88.8988 164.888 91.9169 160.656C125.548 113.448 159.009 81.3316 190.606 65.9277C229.662 46.8862 262.936 22.9493 265.709 11.8973C268.386 1.22608 257.214 -3.34786 243.277 2.71371ZM240.866 21.069C240.866 22.2115 219.434 38.0675 214.405 40.6421C208.591 43.6213 213.553 38.9443 226.783 28.9712C237.554 20.8548 240.866 18.9942 240.866 21.069ZM151.723 36.3181C147.424 40.0947 141.253 44.7202 138.013 46.5966L132.124 50.0122L135.776 45.7834C140.349 40.4993 155.261 29.3719 157.708 29.4155C158.715 29.4314 156.018 32.5376 151.723 36.3181ZM781.444 61.7386C779.91 63.4999 776.499 68.4111 773.866 72.6518C768.511 81.2721 748.19 96.6045 732.497 103.856C720.936 109.2 719.278 111.001 721.725 115.571C723.585 119.05 733.278 120.22 735.15 117.189C735.721 116.261 739.675 113.548 743.938 111.151C748.202 108.759 753.834 105.383 756.455 103.654L761.226 100.504L755.083 120.763C751.708 131.907 745.2 155.165 740.623 172.449C713.678 274.183 690.033 323.39 656.132 348.282C638.091 361.528 631.167 361.052 637.116 346.973C643.529 331.784 635.779 329.233 628.557 344.157C613.157 375.976 646.523 378.372 678.35 347.731C688.09 338.353 699.675 321.589 708.368 304.289L713.948 293.189L735.372 295.946C771.066 300.544 807.881 295.283 835.976 281.577C854.001 272.783 854.573 273.037 853.641 289.428C852.756 304.947 856.024 311.969 866.431 316.908C888.668 327.464 915.763 314.42 956.961 273.33C970.346 259.977 980.725 250.405 980.031 252.059C963.628 291.003 968.498 320.006 990.692 315.563C999.33 313.837 1008.9 307.176 1007.95 303.551C1007.5 301.805 1008.61 299.5 1010.48 298.334C1012.32 297.184 1018.77 288.889 1024.81 279.899C1041.46 255.141 1042.87 255.598 1033.67 282.787C1025.45 307.109 1033.64 319.177 1050.31 307.303C1055.09 303.9 1055.8 303.82 1057.99 306.462C1064.68 314.527 1081.19 311.024 1092.31 299.183L1096.44 294.78L1100.81 299.143C1108.82 307.165 1117.55 303.229 1141.54 280.78C1160.36 263.171 1160.73 262.948 1158.02 270.724C1150.35 292.725 1165.25 307.363 1187.43 299.627C1192.68 297.798 1193.62 298.013 1196.14 301.611C1197.7 303.832 1201.49 307.184 1204.58 309.065L1210.2 312.476L1205.73 314.178C1203.27 315.11 1175.36 327.365 1143.7 341.408C1112.05 355.451 1074.41 372.092 1060.08 378.392L1034.02 389.841L1013.25 386.834C912.773 372.291 843.353 375.909 786.683 398.651C701.658 432.771 674.419 498.274 744.256 500.682C799.2 502.575 869.893 480.915 1004.91 420.811L1042.47 404.09L1072.53 409.549C1089.06 412.548 1139.19 420.39 1183.92 426.976C1228.65 433.561 1290.16 442.867 1320.6 447.66C1375.92 456.367 1385.33 456.708 1378.37 449.746C1373.9 445.279 1276.41 427.602 1161.99 410.521C1105.75 402.122 1065.07 395.474 1064.12 394.518C1063.84 394.232 1085.95 383.779 1113.26 371.283C1240.51 313.063 1241.2 312.81 1243.41 323.159C1255.39 379.154 1350.33 387.798 1442.2 341.261C1541.82 290.793 1569.52 227.107 1492.04 226.639L1477.25 226.547L1488.93 222.057C1556.38 196.105 1591.05 150.591 1568.88 117.086C1536.53 68.177 1421.04 106.804 1319.55 200.48L1302.57 216.15L1293.96 214.865C1272.77 211.691 1216.04 187.901 1198.94 175.016L1192.94 170.494L1212.44 163.548C1225.7 158.819 1235.22 156.558 1242.18 156.47C1250.78 156.363 1252.52 155.784 1253.09 152.809C1254.84 143.716 1240.82 142.122 1221.39 149.203C1214.35 151.77 1202.67 155.923 1195.43 158.438L1182.27 163.012L1164.36 149.469C1125.47 120.045 1104.32 109.394 1082.57 108.279C1025.5 105.352 981.844 156.066 1017.91 183.39C1040.25 200.318 1106.05 198.921 1163.82 180.296L1177.52 175.877L1185.75 182.141C1208.63 199.572 1247.27 218.625 1277.59 227.432C1290.27 231.117 1290.2 229.836 1278.46 243.693C1267.44 256.693 1253.22 278.927 1248.82 290.059C1241.17 309.378 1207.45 309.747 1210.04 290.487C1212.25 274.016 1235.97 249.362 1241.71 257.569C1246.57 264.508 1257.02 257.791 1257.02 247.727C1257.02 223.497 1204.61 250.103 1195.52 278.951C1192.29 289.202 1187.21 292.376 1177.25 290.368C1171.04 289.119 1172.9 270.069 1180.87 253.269C1186.11 242.233 1187.14 238.468 1185.67 235.715C1182 228.864 1177.86 231.335 1143.7 260.731C1112.86 287.266 1115.48 285.711 1116.92 276.658C1117.59 272.449 1120.71 264.861 1123.86 259.795C1131.59 247.35 1132.13 237.028 1125.07 236.211C1119.28 235.544 1110.42 246.196 1106.85 258.113C1104.68 265.352 1089.13 284.029 1079.63 290.793C1068.96 298.39 1073.86 289.186 1089.1 273.009C1110.33 250.46 1114.89 237.877 1102.92 234.874C1089.63 231.534 1068.36 254.047 1058.73 281.657C1056.16 289.016 1051.88 294.367 1048.55 294.367C1047.12 294.367 1050.88 275.94 1055.03 262.54C1062.07 239.853 1054.53 233.525 1036.93 247.366C1029.55 253.17 1029.63 252.087 1037.33 241.828C1042 235.6 1041.71 231.101 1036.51 229.106C1027.08 225.488 995.229 286.941 1000.97 297.676C1003.65 302.674 989.55 308.152 986.286 303.384C983.375 299.127 986.163 271.918 991.092 256.482C997.632 235.989 997.017 224.901 989.331 224.901C989.022 224.901 976.137 237.532 960.697 252.975C921.153 292.518 900.149 307.105 882.699 307.145C870.079 307.176 867.743 305.022 867.743 293.387V283.398L878.249 283.359C904.19 283.259 929.089 255.625 916.132 241.309C910.203 234.751 891.408 237.183 879.443 246.053L873.784 250.25L874.581 241.689C876.405 222.112 860.676 211.6 798.292 190.698C784.72 186.147 773.429 182.264 773.195 182.065C772.965 181.867 787.766 171.755 806.093 159.6C859.34 124.278 871.396 112.449 871.396 95.5294C871.396 76.1269 840.232 66.2451 802.404 73.6594C795.115 75.0915 789.154 75.9444 789.154 75.5636C789.154 75.1788 790.455 72.8779 792.045 70.4501C797.951 61.4371 788.492 53.6658 781.444 61.7386ZM848.251 87.5082C865.443 103.666 849.833 120.454 775.075 166.209C747.595 183.025 747.857 187.036 776.995 195.569C843.686 215.095 862.663 230.463 847.85 252.94C833.073 275.353 762.916 292.023 724.228 282.311C718.62 280.903 718.576 281.681 725.283 264.254C732.128 246.474 740.369 218.645 752.64 171.882C767.98 113.425 777.816 91.2213 789.872 87.8454C813.854 81.1293 841.295 80.9706 848.251 87.5082ZM1544.83 115.19C1572.61 128.642 1562.88 162.298 1523.94 187.5C1475.83 218.625 1399.64 232.954 1336.02 222.838C1318.3 220.022 1318.26 220.351 1338.75 199.627C1369.7 168.308 1443.7 123.12 1480 113.373C1499.36 108.172 1532.24 109.097 1544.83 115.19ZM1107.16 126.151C1120.92 133.089 1146.44 150.298 1158.34 160.66L1166.56 167.824L1158.34 170.049C1066.12 195.006 1004.31 184.938 1023.14 148.021C1035.87 123.068 1078.85 111.877 1107.16 126.151ZM1323.03 237.905C1328.44 239.023 1348.36 240.464 1367.3 241.102L1401.73 242.265L1375.53 250.199C1361.12 254.558 1334.11 263.893 1315.51 270.938C1270.27 288.079 1274.15 287.357 1279.04 277.714C1287.91 260.239 1306.03 235.866 1310.15 235.866C1311.82 235.866 1317.61 236.782 1323.03 237.905ZM216.844 240.555C217.201 240.872 213.326 249.631 208.226 260.021C203.13 270.41 197.939 283.331 196.693 288.734C193.992 300.433 185.117 308.355 157.847 323.417C138.441 334.132 133.655 336.195 135.637 332.99C139.984 325.948 132.707 325.837 117.87 332.72C100.079 340.971 100.166 341.003 106.278 328.705C123.688 293.661 204.268 229.419 216.844 240.555ZM233.017 248.925C229.563 257.145 218.934 273.727 218.934 270.898C218.934 268.498 226.795 252.329 231.324 245.406C235.135 239.579 236.103 241.582 233.017 248.925ZM1515.61 246.89C1548.1 263.052 1451.48 333.787 1375.88 349.199C1311.55 362.31 1264.25 349.231 1264.36 318.367C1264.41 304.685 1264.76 304.364 1290.57 294.24C1394.3 253.567 1488.99 233.64 1515.61 246.89ZM907.95 251.408C907.95 260.382 888.6 271.759 875.83 270.295L870.547 269.688L877.381 262.139C887.99 250.425 907.95 243.415 907.95 251.408ZM1094.94 254.229C1093.14 257.292 1089.23 262.024 1086.26 264.742L1080.87 269.688L1084.2 264.202C1087.45 258.855 1096.21 248.663 1097.55 248.663C1097.93 248.663 1096.75 251.17 1094.94 254.229ZM486.449 254.606C482.103 261.905 476.998 267.423 470.827 271.513C460.199 278.547 462.471 273.941 475.261 262.528C487.171 251.9 488.714 250.809 486.449 254.606ZM975.574 394.093C1018.21 399.703 1017.22 397.794 984.711 411.719C836.928 475.024 747.468 499.342 721.773 483.188C710.676 476.214 721.499 453.174 743.891 436.096C795.817 396.489 879.062 381.399 975.574 394.093Z" fill="white"/>
</svg>
